<?xml version="1.0" encoding="utf-8"?>
<!-- Generator: Adobe Illustrator 21.1.0, SVG Export Plug-In . SVG Version: 6.00 Build 0)  -->
<svg version="1.1" id="Layer_1" xmlns="http://www.w3.org/2000/svg" xmlns:xlink="http://www.w3.org/1999/xlink" x="0px" y="0px"
	 viewBox="0 0 220 32.3" style="enable-background:new 0 0 220 32.3;" xml:space="preserve">
<style type="text/css">
	.st0{fill:#61BF1A;}
	.st1{fill:#00824A;}
	.st2{clip-path:url(#SVGID_2_);fill:#FFFFFF;}
	.st3{clip-path:url(#SVGID_4_);fill:#FFFFFF;}
	.st4{clip-path:url(#SVGID_6_);fill:#FFFFFF;}
	.st5{clip-path:url(#SVGID_8_);fill:#FFFFFF;}
	.st6{fill:#FFFFFF;}
	.st7{clip-path:url(#SVGID_10_);fill:#FFFFFF;}
	.st8{clip-path:url(#SVGID_12_);fill:#FFFFFF;}
	.st9{clip-path:url(#SVGID_14_);fill:#FFFFFF;}
	.st10{clip-path:url(#SVGID_16_);fill:#FFFFFF;}
	.st11{clip-path:url(#SVGID_18_);fill:#FFFFFF;}
</style>
<title>Untitled-1</title>
<g>
	<polygon class="st0" points="18.1,0 14.2,12.8 0,12.8 11.7,19.8 21.8,12.7 	"/>
	<polygon class="st1" points="22.1,12.8 7,32.3 18.1,24.2 29.2,32.3 24.4,19.9 36,12.8 	"/>
	<g>
		<g>
			<g>
				<defs>
					<rect id="SVGID_1_" width="220" height="32.3"/>
				</defs>
				<clipPath id="SVGID_2_">
					<use xlink:href="#SVGID_1_"  style="overflow:visible;"/>
				</clipPath>
				<path class="st2" d="M87.1,26.6c-0.8,1.1-2.2,2.2-4.2,2.2c-1.5,0-2.4-0.6-2.4-1.9c0-1.7,1.7-2.8,4.5-3.2
					c0.6-0.1,1.3-0.1,1.9-0.3L87.1,26.6L87.1,26.6z M92.8,28.7v-8.2c0-3.9-1.8-6.4-8.2-6.4c-5.6,0-8.6,1.8-9.6,5.4l5.4,0.4
					c0.4-1.5,1.4-2.2,3.6-2.2c2.1,0,2.9,0.8,3.1,2.2c0,0.1,0,0.7,0,0.8c-0.8,0-1.5,0.1-2.2,0.1c-6.5,0.6-10.3,2.6-10.3,6.5
					c0,3.1,2.4,4.9,5.8,4.9c3.3,0,5.3-1,7-2.5c0,1,0.1,1.9,0.3,2.2h5.6C93,31.4,92.8,29.6,92.8,28.7"/>
			</g>
		</g>
		<g>
			<g>
				<defs>
					<rect id="SVGID_3_" width="220" height="32.3"/>
				</defs>
				<clipPath id="SVGID_4_">
					<use xlink:href="#SVGID_3_"  style="overflow:visible;"/>
				</clipPath>
				<path class="st3" d="M61.4,14.2h2.2L64,8.8h5.3v5.4h3.9V18h-3.9v7.7c0,1.4,0.6,2.2,1.9,2.4c0.7,0.1,1.4,0.1,2.2,0v4.2
					c-1,0.1-2.2,0.3-3.5,0.3c-4.3,0-6.5-1.9-6.5-5.7v-8.6h-2.1V14.2z"/>
			</g>
		</g>
		<g>
			<g>
				<defs>
					<rect id="SVGID_5_" width="220" height="32.3"/>
				</defs>
				<clipPath id="SVGID_6_">
					<use xlink:href="#SVGID_5_"  style="overflow:visible;"/>
				</clipPath>
				<path class="st4" d="M95.3,14.2h5.7v3.9c0.8-2.1,3.1-4,5.8-4c0.6,0,1.1,0,1.4,0.1v4.5c-0.4-0.1-1.3-0.1-1.7-0.1
					c-2.2,0-4.2,1.1-5.1,2.9v10.4h-6L95.3,14.2L95.3,14.2z"/>
			</g>
		</g>
		<g>
			<g>
				<defs>
					<rect id="SVGID_7_" width="220" height="32.3"/>
				</defs>
				<clipPath id="SVGID_8_">
					<use xlink:href="#SVGID_7_"  style="overflow:visible;"/>
				</clipPath>
				<path class="st5" d="M39.5,25.9l5-1.8c1,2.4,2.6,3.8,6.1,3.8c2.5,0,4.2-1,4.2-2.6c0-2.2-2.8-2.8-5.8-3.5c-3.9-1-8.5-2.2-8.5-7.7
					c0-4.2,3.8-7.1,9.9-7.1c5.4,0,8.5,2.2,10,6l-5.3,1.5c-0.7-2.1-2.4-2.9-4.7-2.9c-2.1,0-3.5,0.8-3.5,2.2c0,2.2,2.5,2.5,6,3.3
					c4.2,1,8.2,2.5,8.2,7.5c0,4.3-3.3,7.5-10.2,7.5C44,32.3,40.9,29.5,39.5,25.9"/>
			</g>
		</g>
	</g>
	<polygon class="st6" points="104.1,7.4 104.1,12 110.6,12 110.6,32 116.6,32 116.6,12 123.1,12 123.1,7.4 	"/>
	<g>
		<g>
			<g>
				<defs>
					<rect id="SVGID_9_" width="220" height="32.3"/>
				</defs>
				<clipPath id="SVGID_10_">
					<use xlink:href="#SVGID_9_"  style="overflow:visible;"/>
				</clipPath>
				<path class="st7" d="M119.1,14.2h5.6v3.9c0.8-2.1,3.1-4,5.8-4c0.6,0,1.1,0,1.4,0.1v4.5c-0.4-0.1-1.3-0.1-1.7-0.1
					c-2.2,0-4.2,1.1-5.1,2.9v10.4h-6V14.2z"/>
			</g>
		</g>
		<g>
			<g>
				<defs>
					<rect id="SVGID_11_" width="220" height="32.3"/>
				</defs>
				<clipPath id="SVGID_12_">
					<use xlink:href="#SVGID_11_"  style="overflow:visible;"/>
				</clipPath>
				<path class="st8" d="M151.8,29.4c-1.9,0-3.2-1.7-3.2-4.2v-4.7c0.4-1.7,1.5-2.6,3.2-2.6c2.2,0,3.1,1.8,3.1,5.6
					C154.9,27.3,154,29.4,151.8,29.4 M154.3,13.9c-2.9,0-4.6,1.5-5.7,3.1V7.4h-5.8V32h3.6l0.8-2.6c1.4,1.8,3.2,2.9,6.3,2.9
					c4.5,0,7.5-3.1,7.5-9.2C161,17.1,158.6,13.9,154.3,13.9"/>
			</g>
		</g>
		<g>
			<g>
				<defs>
					<rect id="SVGID_13_" width="220" height="32.3"/>
				</defs>
				<clipPath id="SVGID_14_">
					<use xlink:href="#SVGID_13_"  style="overflow:visible;"/>
				</clipPath>
				<path class="st9" d="M162.7,26.6V14.2h5.8v12.1c0,1.7,0.7,2.4,2.4,2.4c1.4,0,2.4-0.8,3.1-2.1V14.2h5.8V32h-5.7v-2.6
					c-1.3,1.9-3.3,2.8-6,2.8C165,32.3,162.7,30.6,162.7,26.6"/>
			</g>
		</g>
		<g>
			<g>
				<defs>
					<rect id="SVGID_15_" width="220" height="32.3"/>
				</defs>
				<clipPath id="SVGID_16_">
					<use xlink:href="#SVGID_15_"  style="overflow:visible;"/>
				</clipPath>
				<path class="st10" d="M182.3,14.2h5.7v2.9c1.1-1.5,2.9-3.2,6.1-3.2c3.9,0,5.4,2.2,5.4,5.6V32h-6V19.6c0-1.1-0.6-1.9-2.1-1.9
					s-2.6,1-3.3,2.1V32h-5.8L182.3,14.2L182.3,14.2z"/>
			</g>
		</g>
		<g>
			<g>
				<defs>
					<rect id="SVGID_17_" width="220" height="32.3"/>
				</defs>
				<clipPath id="SVGID_18_">
					<use xlink:href="#SVGID_17_"  style="overflow:visible;"/>
				</clipPath>
				<path class="st11" d="M214.2,21.3c-0.1-2.4-1.3-3.9-3.5-3.9c-1.9,0-3.3,1.4-3.6,3.9H214.2z M200.9,23.4c0-5.7,4.5-9.5,9.7-9.5
					c5.8,0,9.3,3.6,9.5,9.2c0,0.4,0,0.7,0,1.1h-12.9c0.1,3.2,1.8,4.6,4.2,4.6c1.9,0,3.1-0.8,3.8-2.6l4.9,0.6
					c-1.3,3.3-4.3,5.6-9.2,5.6C205,32.3,200.9,28.8,200.9,23.4"/>
			</g>
		</g>
	</g>
	<polygon class="st6" points="134.4,7.4 140.3,7.4 140.3,12 134.4,12 	"/>
	<rect x="134.4" y="14.2" class="st6" width="6" height="17.8"/>
</g>
</svg>
